<svg id="Layer_1" enable-background="new 0 0 513.052 513.052" height="512" viewBox="0 0 513.052 513.052" width="512" xmlns="http://www.w3.org/2000/svg"><path d="m512.648 89.503c-2.199-23.372-13.399-45.406-31.537-62.044-18.154-16.651-41.21-26.12-64.921-26.661-22.237-.505-43.332 6.76-61.681 21.137-19.321-14.749-40.922-22.125-63.119-21.421-23.421.736-46.077 10.525-63.793 27.566-17.775 17.097-28.677 39.551-30.699 63.228-1.384 16.208 1.417 32.057 8.166 46.92-23.696-15.348-49.474-22.926-75.839-22.097-31.858 1.001-62.705 14.348-86.859 37.58-24.264 23.338-39.143 53.957-41.898 86.219-3.084 36.119 9.129 71.002 35.32 100.876.146.165.294.327.446.486 1.12 1.169 45.612 47.586 89.111 92.965l61.928 64.605c8.481 8.849 19.899 13.722 32.15 13.722 12.249 0 23.667-4.873 32.147-13.72 45.329-47.287 147.133-153.486 151.044-157.566.359-.375.696-.765 1.01-1.167 39.602-47.622 40.244-91.054 31.941-121.532 25.752-26.865 49.09-51.21 50.634-52.82.341-.355.662-.726.963-1.107 19.133-23.046 27.945-49.03 25.486-75.169zm-132.132 231.494c-8.271 8.629-106.35 110.942-150.604 157.107-2.769 2.889-6.494 4.479-10.49 4.479-3.997 0-7.723-1.592-10.493-4.481l-61.928-64.605c-42.127-43.948-85.187-88.87-88.869-92.712-45.838-52.522-29.553-112.19 5.028-145.452 48.522-46.673 108.262-31.521 145.941 4.196 5.887 5.58 15.143 5.471 20.895-.248 1.161-1.155 2.191-2.17 3.154-3.1 9.765 10.188 25.551 26.656 42.187 44.012l53.591 55.908c6.795 7.089 15.942 10.992 25.757 10.992h.001c9.814 0 18.961-3.903 25.755-10.991 7.847-8.186 18.113-18.895 29.161-30.42 1.114 25.192-8.696 50.809-29.086 75.315zm83.608-175.542c-6.504 6.784-74.54 77.758-105.34 109.888-1.461 1.524-3.195 1.751-4.099 1.751s-2.638-.228-4.1-1.752l-53.591-55.908c-25.624-26.732-49.244-51.373-51.92-54.166-30.072-34.539-19.389-73.726 3.318-95.565 12.353-11.882 27.957-18.701 43.939-19.203 18.147-.574 36.137 7.094 52.034 22.164 5.887 5.58 15.143 5.471 20.895-.248 32.535-32.346 72.348-24.149 95.571-2.848 12.651 11.604 20.446 26.785 21.948 42.746 1.695 18.007-4.755 36.375-18.655 53.141z" fill="#b8bac9"/></svg>