<svg xmlns="http://www.w3.org/2000/svg" width="58.292" height="73.836" viewBox="0 0 58.292 73.836">
  <g id="Group_334" data-name="Group 334" transform="translate(358.678 -124.334)">
    <path id="Path_728" data-name="Path 728" d="M-343.994,158.492l-1.113-9.147h40.92l-5.047,41.473a6.087,6.087,0,0,1-6.043,5.352h-18.74a6.087,6.087,0,0,1-6.043-5.352L-342.9,167.5" fill="none" stroke="#D9702D" stroke-linecap="round" stroke-miterlimit="10" stroke-width="4"/>
    <line id="Line_9" data-name="Line 9" y1="26.729" x2="52.919" transform="translate(-355.991 127.021)" fill="none" stroke="#D9702D" stroke-linecap="round" stroke-miterlimit="10" stroke-width="4"/>
    <path id="Path_729" data-name="Path 729" d="M-322.511,135.862l-.724-1.433a4.546,4.546,0,0,0-6.106-2.008l-6.713,3.391a4.546,4.546,0,0,0-2.008,6.106l.724,1.433" fill="none" stroke="#D9702D" stroke-linecap="round" stroke-miterlimit="10" stroke-width="4"/>
    <line id="Line_10" data-name="Line 10" x2="2.161" y2="20.494" transform="translate(-332.953 162.31)" fill="none" stroke="#D9702D" stroke-linecap="round" stroke-miterlimit="10" stroke-width="4"/>
    <line id="Line_11" data-name="Line 11" x1="2.161" y2="20.494" transform="translate(-317.827 162.31)" fill="none" stroke="#D9702D" stroke-linecap="round" stroke-miterlimit="10" stroke-width="4"/>
  </g>
</svg>
